<svg width="23" height="23" viewBox="0 0 23 23" fill="none" xmlns="http://www.w3.org/2000/svg"><path d="M16.1482 0H6.85182C3.07371 0 0 3.07371 0 6.85182V16.1482C0 19.9263 3.07371 23 6.85182 23H16.1482C19.9263 23 23 19.9263 23 16.1482V6.85182C23 3.07371 19.9262 0 16.1482 0ZM20.6862 16.1482C20.6862 18.6544 18.6544 20.6862 16.1482 20.6862H6.85182C4.34556 20.6862 2.3138 18.6544 2.3138 16.1482V6.85182C2.3138 4.34552 4.34556 2.3138 6.85182 2.3138H16.1482C18.6544 2.3138 20.6862 4.34552 20.6862 6.85182V16.1482Z" fill="#fff"/><path d="M16.1482 0H6.85182C3.07371 0 0 3.07371 0 6.85182V16.1482C0 19.9263 3.07371 23 6.85182 23H16.1482C19.9263 23 23 19.9263 23 16.1482V6.85182C23 3.07371 19.9262 0 16.1482 0ZM20.6862 16.1482C20.6862 18.6544 18.6544 20.6862 16.1482 20.6862H6.85182C4.34556 20.6862 2.3138 18.6544 2.3138 16.1482V6.85182C2.3138 4.34552 4.34556 2.3138 6.85182 2.3138H16.1482C18.6544 2.3138 20.6862 4.34552 20.6862 6.85182V16.1482Z" fill="url(#paint0_linear)"/><path d="M11.4999 5.55127C8.21981 5.55127 5.55127 8.21981 5.55127 11.4998C5.55127 14.7799 8.21981 17.4485 11.4999 17.4485C14.78 17.4485 17.4485 14.7799 17.4485 11.4998C17.4485 8.21977 14.78 5.55127 11.4999 5.55127ZM11.4999 15.1347C9.49242 15.1347 7.86507 13.5074 7.86507 11.4999C7.86507 9.49242 9.49246 7.86507 11.4999 7.86507C13.5074 7.86507 15.1347 9.49242 15.1347 11.4999C15.1347 13.5073 13.5073 15.1347 11.4999 15.1347Z" fill="#fff"/><path d="M11.4999 5.55127C8.21981 5.55127 5.55127 8.21981 5.55127 11.4998C5.55127 14.7799 8.21981 17.4485 11.4999 17.4485C14.78 17.4485 17.4485 14.7799 17.4485 11.4998C17.4485 8.21977 14.78 5.55127 11.4999 5.55127ZM11.4999 15.1347C9.49242 15.1347 7.86507 13.5074 7.86507 11.4999C7.86507 9.49242 9.49246 7.86507 11.4999 7.86507C13.5074 7.86507 15.1347 9.49242 15.1347 11.4999C15.1347 13.5073 13.5073 15.1347 11.4999 15.1347Z" fill="url(#paint1_linear)"/><path d="M17.4601 7.02123C18.2473 7.02123 18.8855 6.38306 18.8855 5.59582C18.8855 4.80859 18.2473 4.17041 17.4601 4.17041C16.6728 4.17041 16.0347 4.80859 16.0347 5.59582C16.0347 6.38306 16.6728 7.02123 17.4601 7.02123Z" fill="#fff"/><path d="M17.4601 7.02123C18.2473 7.02123 18.8855 6.38306 18.8855 5.59582C18.8855 4.80859 18.2473 4.17041 17.4601 4.17041C16.6728 4.17041 16.0347 4.80859 16.0347 5.59582C16.0347 6.38306 16.6728 7.02123 17.4601 7.02123Z" fill="url(#paint2_linear)"/><defs><linearGradient id="paint0_linear" x1="11.5" y1="0" x2="11.5" y2="23" gradientUnits="userSpaceOnUse"><stop stop-color="#FFB902"/><stop offset=".339" stop-color="#F27E33"/><stop offset="1" stop-color="#A535B3"/></linearGradient><linearGradient id="paint1_linear" x1="11.5" y1="5.551" x2="11.5" y2="17.448" gradientUnits="userSpaceOnUse"><stop stop-color="#FFB902"/><stop offset=".339" stop-color="#F27E33"/><stop offset="1" stop-color="#A535B3"/></linearGradient><linearGradient id="paint2_linear" x1="17.46" y1="4.17" x2="17.46" y2="7.021" gradientUnits="userSpaceOnUse"><stop stop-color="#FFB902"/><stop offset=".339" stop-color="#F27E33"/><stop offset="1" stop-color="#A535B3"/></linearGradient></defs></svg>