<svg width="185" height="49" viewBox="0 0 185 49" fill="none" xmlns="http://www.w3.org/2000/svg"><path d="M4.05 48.135C2.86 48.135 2.005 47.8 1.485 47.13C0.975 46.45 0.72 45.47 0.72 44.19V39.585C0.72 38.325 0.98 37.37 1.5 36.72C2.02 36.07 2.87 35.745 4.05 35.745C5.23 35.745 6.075 36.075 6.585 36.735C7.105 37.385 7.365 38.335 7.365 39.585V44.205C7.365 45.465 7.105 46.435 6.585 47.115C6.065 47.795 5.22 48.135 4.05 48.135ZM4.05 46.8C4.68 46.8 5.105 46.615 5.325 46.245C5.545 45.875 5.655 45.315 5.655 44.565V39.24C5.655 38.5 5.545 37.955 5.325 37.605C5.105 37.245 4.68 37.065 4.05 37.065C3.41 37.065 2.98 37.245 2.76 37.605C2.54 37.955 2.43 38.5 2.43 39.24V44.565C2.43 45.315 2.54 45.875 2.76 46.245C2.98 46.615 3.41 46.8 4.05 46.8ZM19.9809 35.85H21.1359L24.5859 43.92V35.85H25.9959V48H24.9159L21.4209 39.705V48H19.9809V35.85ZM38.8557 35.85H40.5507V46.785H43.6557V48H38.8557V35.85ZM55.8577 35.85H57.5227V48H55.8577V35.85ZM70.4384 35.85H71.5934L75.0434 43.92V35.85H76.4534V48H75.3734L71.8784 39.705V48H70.4384V35.85ZM89.3132 35.85H94.0232V37.11H91.0082V41.13H93.4532V42.33H91.0082V46.785H94.0532V48H89.3132V35.85Z" fill="#000"/><path d="M7.12 30H1.76C1.2 30 1.01333 29.7333 1.2 29.2L10.48 1.96C10.64 1.58667 10.8933 1.4 11.24 1.4H17.32C17.6933 1.4 17.9467 1.58667 18.08 1.96L27.36 29.2C27.5733 29.7333 27.3867 30 26.8 30H21.48C21.0533 30 20.7733 29.8 20.64 29.4L19.16 24.52H9.44L7.92 29.4C7.81333 29.8 7.54667 30 7.12 30ZM14.2 8.4C14.0667 8.82667 13.6133 10.36 12.84 13C12.0933 15.6133 11.5067 17.6 11.08 18.96H17.52C17.44 18.6933 16.3867 15.1733 14.36 8.4H14.2ZM52.0938 19.48C52.0938 22.9733 51.1071 25.68 49.1337 27.6C47.1871 29.52 44.4538 30.48 40.9338 30.48C37.4138 30.48 34.6804 29.52 32.7338 27.6C30.7871 25.68 29.8138 22.9733 29.8138 19.48V2.12C29.8138 1.64 30.0538 1.4 30.5338 1.4H35.6138C36.0938 1.4 36.3338 1.64 36.3338 2.12V19.48C36.3338 21.08 36.7204 22.3067 37.4938 23.16C38.2938 23.9867 39.4404 24.4 40.9338 24.4C42.4271 24.4 43.5738 23.9867 44.3738 23.16C45.2004 22.3067 45.6138 21.08 45.6138 19.48V2.12C45.6138 1.64 45.8404 1.4 46.2938 1.4H51.4138C51.8671 1.4 52.0938 1.64 52.0938 2.12V19.48ZM79.0281 30H73.1481C72.7748 30 72.5081 29.84 72.3481 29.52L66.7881 20.44H64.2281V29.28C64.2281 29.76 63.9881 30 63.5081 30H58.5081C58.0281 30 57.7881 29.76 57.7881 29.28V2.12C57.7881 1.64 58.0281 1.4 58.5081 1.4H68.2281C71.5881 1.4 74.2015 2.26667 76.0681 4C77.9348 5.70667 78.8681 8.05333 78.8681 11.04C78.8681 13.0933 78.3748 14.84 77.3881 16.28C76.4015 17.72 74.9748 18.7867 73.1081 19.48L79.5081 29.16C79.6415 29.4 79.6548 29.6 79.5481 29.76C79.4681 29.92 79.2948 30 79.0281 30ZM68.0281 7.32H64.2281V14.84H68.0281C69.4948 14.84 70.5615 14.5467 71.2281 13.96C71.9215 13.3467 72.2681 12.3867 72.2681 11.08C72.2681 9.8 71.9215 8.85333 71.2281 8.24C70.5615 7.62667 69.4948 7.32 68.0281 7.32ZM105.93 19.12C105.93 22.6933 104.904 25.48 102.85 27.48C100.797 29.48 97.9303 30.48 94.2503 30.48C90.597 30.48 87.7436 29.48 85.6903 27.48C83.637 25.48 82.6103 22.6933 82.6103 19.12V12.2C82.6103 8.65333 83.637 5.88 85.6903 3.88C87.7436 1.88 90.597 0.879998 94.2503 0.879998C97.9303 0.879998 100.797 1.88 102.85 3.88C104.904 5.85333 105.93 8.62666 105.93 12.2V19.12ZM89.1703 19C89.1703 22.6 90.8636 24.4 94.2503 24.4C97.637 24.4 99.3303 22.6 99.3303 19V12.32C99.3303 8.74667 97.637 6.96 94.2503 6.96C90.8636 6.96 89.1703 8.74667 89.1703 12.32V19ZM133.313 19.12C133.313 22.6933 132.286 25.48 130.233 27.48C128.18 29.48 125.313 30.48 121.633 30.48C117.98 30.48 115.126 29.48 113.073 27.48C111.02 25.48 109.993 22.6933 109.993 19.12V12.2C109.993 8.65333 111.02 5.88 113.073 3.88C115.126 1.88 117.98 0.879998 121.633 0.879998C125.313 0.879998 128.18 1.88 130.233 3.88C132.286 5.85333 133.313 8.62666 133.313 12.2V19.12ZM116.553 19C116.553 22.6 118.246 24.4 121.633 24.4C125.02 24.4 126.713 22.6 126.713 19V12.32C126.713 8.74667 125.02 6.96 121.633 6.96C118.246 6.96 116.553 8.74667 116.553 12.32V19ZM143.936 30H139.016C138.536 30 138.296 29.76 138.296 29.28V2.12C138.296 1.64 138.536 1.4 139.016 1.4H144.696C145.069 1.4 145.336 1.57333 145.496 1.92L149.096 8.88C150.029 10.6933 151.229 13.32 152.696 16.76H152.856C153.869 14.2267 155.056 11.6 156.416 8.88L160.056 1.92C160.216 1.57333 160.483 1.4 160.856 1.4H166.536C166.989 1.4 167.216 1.64 167.216 2.12V29.28C167.216 29.76 166.989 30 166.536 30H161.576C161.096 30 160.856 29.76 160.856 29.28V24C160.856 20.1333 160.989 15.8667 161.256 11.2L161.096 11.16C160.109 13.56 158.896 16.24 157.456 19.2L155.496 23.16C155.336 23.5067 155.069 23.68 154.696 23.68H150.856C150.456 23.68 150.189 23.5067 150.056 23.16L148.056 19.2C146.616 16.24 145.403 13.56 144.416 11.16L144.256 11.2C144.523 15.8667 144.656 20.1333 144.656 24V29.28C144.656 29.76 144.416 30 143.936 30Z" fill="#000"/></svg>